<svg width="18" height="21" viewBox="0 0 18 21" fill="none" xmlns="http://www.w3.org/2000/svg">
<path d="M17.8656 3.44005C17.0877 4.16941 16.1314 5.07015 15.1694 5.98491C15.0091 6.13753 14.7558 6.14687 14.5898 5.9999C13.7151 5.23493 12.6156 4.71529 11.4013 4.5477C11.1897 4.51866 11.0332 4.33795 11.0332 4.12637V0.348405C11.0332 0.153644 11.1945 -0.00460036 11.3918 0.000102167C11.3956 0.000102167 11.3984 0.000102167 11.4003 0.000102167C14.0044 0.13212 16.0745 1.17984 17.8646 2.82209C18.0458 2.98782 18.0458 3.27152 17.8665 3.4391L17.8656 3.44005Z" fill="#FFD701"/>
<path d="M17.869 17.2889L15.1236 14.7015C14.9685 14.5541 14.7217 14.5423 14.5534 14.6751C13.4795 15.5273 12.0944 16.0302 10.5884 16.0047C9.19673 15.982 7.91759 15.5 6.90224 14.7124C5.50396 13.6274 4.60959 11.9604 4.6266 10.1142C4.62851 9.90045 4.64269 9.68948 4.66822 9.48213C4.8535 7.95424 5.65334 6.60643 6.82186 5.67242C6.8871 5.62058 6.95327 5.56966 7.02039 5.52055C7.80319 4.94667 8.91597 4.55287 9.93132 4.39919C10.1422 4.36734 10.3 4.19637 10.3 3.99083V0.413057C10.3 0.171122 10.0835 -0.0216716 9.83301 0.00196401C8.32506 0.14203 6.72733 0.584024 5.46898 1.26431C5.28937 1.36069 5.11255 1.46256 4.9405 1.56988C4.47913 1.85271 4.04234 2.1692 3.63392 2.5157C2.41907 3.54521 1.44908 4.83389 0.817546 6.29356C0.267316 7.56409 -0.0248176 8.96282 0.00165392 10.4307C0.103759 15.9593 4.79964 20.4583 10.5468 20.5338C13.3594 20.5711 15.9291 19.5634 17.8596 17.8882C18.043 17.7309 18.0458 17.4544 17.87 17.2898L17.869 17.2889Z" fill="white"/>
</svg>
